<svg viewBox="0 0 1446 400" xmlns="http://www.w3.org/2000/svg"><g><g><g><g><g><line x1="41.140000343322754" y1="360.17738319388087" x2="36.140000343322754" y2="360.17738319388087" style="visibility: inherit;" fill="rgb(0, 0, 0)" stroke="rgb(204, 204, 204)" stroke-width="1px"></line><line x1="41.140000343322754" y1="320.854726308014" x2="36.140000343322754" y2="320.854726308014" style="visibility: inherit;" fill="rgb(0, 0, 0)" stroke="rgb(204, 204, 204)" stroke-width="1px"></line><line x1="41.140000343322754" y1="281.532069422147" x2="36.140000343322754" y2="281.532069422147" style="visibility: inherit;" fill="rgb(0, 0, 0)" stroke="rgb(204, 204, 204)" stroke-width="1px"></line><line x1="41.140000343322754" y1="242.20941253628013" x2="36.140000343322754" y2="242.20941253628013" style="visibility: inherit;" fill="rgb(0, 0, 0)" stroke="rgb(204, 204, 204)" stroke-width="1px"></line><line x1="41.140000343322754" y1="202.8867556504132" x2="36.140000343322754" y2="202.8867556504132" style="visibility: inherit;" fill="rgb(0, 0, 0)" stroke="rgb(204, 204, 204)" stroke-width="1px"></line><line x1="41.140000343322754" y1="163.5640987645462" x2="36.140000343322754" y2="163.5640987645462" style="visibility: inherit;" fill="rgb(0, 0, 0)" stroke="rgb(204, 204, 204)" stroke-width="1px"></line><line x1="41.140000343322754" y1="124.24144187867935" x2="36.140000343322754" y2="124.24144187867935" style="visibility: inherit;" fill="rgb(0, 0, 0)" stroke="rgb(204, 204, 204)" stroke-width="1px"></line><line x1="41.140000343322754" y1="84.91878499281239" x2="36.140000343322754" y2="84.91878499281239" style="visibility: inherit;" fill="rgb(0, 0, 0)" stroke="rgb(204, 204, 204)" stroke-width="1px"></line><line x1="41.140000343322754" y1="45.596128106945514" x2="36.140000343322754" y2="45.596128106945514" style="visibility: inherit;" fill="rgb(0, 0, 0)" stroke="rgb(204, 204, 204)" stroke-width="1px"></line><line x1="41.140000343322754" y1="6.27347122107858" x2="36.140000343322754" y2="6.27347122107858" style="visibility: inherit;" fill="rgb(0, 0, 0)" stroke="rgb(204, 204, 204)" stroke-width="1px"></line></g><g transform="translate(31.140000343322754, 0)"><text style="text-anchor: end; visibility: inherit; font-family: &quot;Helvetica Neue&quot;, sans-serif; font-size: 12px; font-weight: 200;" x="0" y="360.17738319388087" dx="0em" dy="0.3em" fill="rgb(50, 49, 63)" stroke="none" stroke-width="1px">2.2</text><text style="text-anchor: end; visibility: inherit; font-family: &quot;Helvetica Neue&quot;, sans-serif; font-size: 12px; font-weight: 200;" x="0" y="320.854726308014" dx="0em" dy="0.3em" fill="rgb(50, 49, 63)" stroke="none" stroke-width="1px">2.4</text><text style="text-anchor: end; visibility: inherit; font-family: &quot;Helvetica Neue&quot;, sans-serif; font-size: 12px; font-weight: 200;" x="0" y="281.532069422147" dx="0em" dy="0.3em" fill="rgb(50, 49, 63)" stroke="none" stroke-width="1px">2.6</text><text style="text-anchor: end; visibility: inherit; font-family: &quot;Helvetica Neue&quot;, sans-serif; font-size: 12px; font-weight: 200;" x="0" y="242.20941253628013" dx="0em" dy="0.3em" fill="rgb(50, 49, 63)" stroke="none" stroke-width="1px">2.8</text><text style="text-anchor: end; visibility: inherit; font-family: &quot;Helvetica Neue&quot;, sans-serif; font-size: 12px; font-weight: 200;" x="0" y="202.8867556504132" dx="0em" dy="0.3em" fill="rgb(50, 49, 63)" stroke="none" stroke-width="1px">3</text><text style="text-anchor: end; visibility: inherit; font-family: &quot;Helvetica Neue&quot;, sans-serif; font-size: 12px; font-weight: 200;" x="0" y="163.5640987645462" dx="0em" dy="0.3em" fill="rgb(50, 49, 63)" stroke="none" stroke-width="1px">3.2</text><text style="text-anchor: end; visibility: inherit; font-family: &quot;Helvetica Neue&quot;, sans-serif; font-size: 12px; font-weight: 200;" x="0" y="124.24144187867935" dx="0em" dy="0.3em" fill="rgb(50, 49, 63)" stroke="none" stroke-width="1px">3.4</text><text style="text-anchor: end; visibility: inherit; font-family: &quot;Helvetica Neue&quot;, sans-serif; font-size: 12px; font-weight: 200;" x="0" y="84.91878499281239" dx="0em" dy="0.3em" fill="rgb(50, 49, 63)" stroke="none" stroke-width="1px">3.6</text><text style="text-anchor: end; visibility: inherit; font-family: &quot;Helvetica Neue&quot;, sans-serif; font-size: 12px; font-weight: 200;" x="0" y="45.596128106945514" dx="0em" dy="0.3em" fill="rgb(50, 49, 63)" stroke="none" stroke-width="1px">3.8</text><text style="text-anchor: end; visibility: hidden; font-family: &quot;Helvetica Neue&quot;, sans-serif; font-size: 12px; font-weight: 200;" x="0" y="6.27347122107858" dx="0em" dy="0.3em" fill="rgb(50, 49, 63)" stroke="none" stroke-width="1px">4</text></g><line x1="41.140000343322754" y1="0" x2="41.140000343322754" y2="377.95999908447266" fill="rgb(0, 0, 0)" stroke="rgb(204, 204, 204)" stroke-width="1px"></line></g></g><g transform="translate(41, 0)" clip-path="url(#clip_0)"><clipPath id="clip_0"><rect width="1404" height="377"></rect></clipPath><g><g><g><line x1="2.6113931529859604" y1="0" x2="2.6113931529859604" y2="377.95999908447266" fill="rgb(0, 0, 0)" stroke="rgb(60, 60, 60)" stroke-width="1px" opacity="0.25"></line><line x1="134.71399107091486" y1="0" x2="134.71399107091486" y2="377.95999908447266" fill="rgb(0, 0, 0)" stroke="rgb(60, 60, 60)" stroke-width="1px" opacity="0.25"></line><line x1="266.81658898884376" y1="0" x2="266.81658898884376" y2="377.95999908447266" fill="rgb(0, 0, 0)" stroke="rgb(60, 60, 60)" stroke-width="1px" opacity="0.25"></line><line x1="398.9191869067726" y1="0" x2="398.9191869067726" y2="377.95999908447266" fill="rgb(0, 0, 0)" stroke="rgb(60, 60, 60)" stroke-width="1px" opacity="0.25"></line><line x1="531.0217848247016" y1="0" x2="531.0217848247016" y2="377.95999908447266" fill="rgb(0, 0, 0)" stroke="rgb(60, 60, 60)" stroke-width="1px" opacity="0.25"></line><line x1="663.1243827426305" y1="0" x2="663.1243827426305" y2="377.95999908447266" fill="rgb(0, 0, 0)" stroke="rgb(60, 60, 60)" stroke-width="1px" opacity="0.25"></line><line x1="795.2269806605594" y1="0" x2="795.2269806605594" y2="377.95999908447266" fill="rgb(0, 0, 0)" stroke="rgb(60, 60, 60)" stroke-width="1px" opacity="0.25"></line><line x1="927.3295785784883" y1="0" x2="927.3295785784883" y2="377.95999908447266" fill="rgb(0, 0, 0)" stroke="rgb(60, 60, 60)" stroke-width="1px" opacity="0.25"></line><line x1="1059.4321764964172" y1="0" x2="1059.4321764964172" y2="377.95999908447266" fill="rgb(0, 0, 0)" stroke="rgb(60, 60, 60)" stroke-width="1px" opacity="0.25"></line><line x1="1191.534774414346" y1="0" x2="1191.534774414346" y2="377.95999908447266" fill="rgb(0, 0, 0)" stroke="rgb(60, 60, 60)" stroke-width="1px" opacity="0.25"></line><line x1="1323.637372332275" y1="0" x2="1323.637372332275" y2="377.95999908447266" fill="rgb(0, 0, 0)" stroke="rgb(60, 60, 60)" stroke-width="1px" opacity="0.25"></line></g><g><line x1="0" y1="360.17738319388087" x2="1404.8599996566772" y2="360.17738319388087" fill="rgb(0, 0, 0)" stroke="rgb(60, 60, 60)" stroke-width="1px" opacity="0.25"></line><line x1="0" y1="320.854726308014" x2="1404.8599996566772" y2="320.854726308014" fill="rgb(0, 0, 0)" stroke="rgb(60, 60, 60)" stroke-width="1px" opacity="0.25"></line><line x1="0" y1="281.532069422147" x2="1404.8599996566772" y2="281.532069422147" fill="rgb(0, 0, 0)" stroke="rgb(60, 60, 60)" stroke-width="1px" opacity="0.25"></line><line x1="0" y1="242.20941253628013" x2="1404.8599996566772" y2="242.20941253628013" fill="rgb(0, 0, 0)" stroke="rgb(60, 60, 60)" stroke-width="1px" opacity="0.25"></line><line x1="0" y1="202.8867556504132" x2="1404.8599996566772" y2="202.8867556504132" fill="rgb(0, 0, 0)" stroke="rgb(60, 60, 60)" stroke-width="1px" opacity="0.25"></line><line x1="0" y1="163.5640987645462" x2="1404.8599996566772" y2="163.5640987645462" fill="rgb(0, 0, 0)" stroke="rgb(60, 60, 60)" stroke-width="1px" opacity="0.25"></line><line x1="0" y1="124.24144187867935" x2="1404.8599996566772" y2="124.24144187867935" fill="rgb(0, 0, 0)" stroke="rgb(60, 60, 60)" stroke-width="1px" opacity="0.25"></line><line x1="0" y1="84.91878499281239" x2="1404.8599996566772" y2="84.91878499281239" fill="rgb(0, 0, 0)" stroke="rgb(60, 60, 60)" stroke-width="1px" opacity="0.25"></line><line x1="0" y1="45.596128106945514" x2="1404.8599996566772" y2="45.596128106945514" fill="rgb(0, 0, 0)" stroke="rgb(60, 60, 60)" stroke-width="1px" opacity="0.25"></line><line x1="0" y1="6.27347122107858" x2="1404.8599996566772" y2="6.27347122107858" fill="rgb(0, 0, 0)" stroke="rgb(60, 60, 60)" stroke-width="1px" opacity="0.25"></line></g></g></g><g><g><line x1="0" y1="792.726608938417" x2="1404.8599996566772" y2="792.726608938417" fill="rgb(0, 0, 0)" stroke="rgb(153, 153, 153)" stroke-width="1.5px"></line></g></g><g><g><line x1="2.6113931529859604" y1="0" x2="2.6113931529859604" y2="377.95999908447266" fill="rgb(0, 0, 0)" stroke="rgb(153, 153, 153)" stroke-width="1.5px"></line></g></g><g><g><g><g><g><path style="fill: none;" stroke="rgb(51, 187, 238)" stroke-width="2px" d="M20.775500366701184,-25.25163525606962L22.027832994963152,3.0916200294919918L24.32377614677675,0.31648798594090977L24.77820908361443,-5.8981475149780636L26.15207610196089,-6.280104022688818L28.099268395271164,24.59456523373865L28.90245219061217,28.229743127622044L30.83379217217229,47.74078990048827L31.251236381592943,73.94111482137066L31.629049811638218,81.95025187461027L31.679248798847034,88.11061150916936L32.24464791793577,100.66276127134813L32.33447768451996,113.96994795759713L36.9501424557724,131.86115031238702L37.2434102231502,151.93774312867785L37.4283538602353,160.17025684014166L40.889441925685034,165.3061956931327L42.065155047154605,172.33073700343516L42.318792035157024,166.60010577516692L42.68867930932723,160.3091992980451L42.902685517954275,158.50073969092L43.549988247752125,151.72577345813926L44.435075653802244,143.13498630558144L45.140503526683986,157.4986096273756L45.45754976168702,168.1626805967315L46.569853636155976,173.8971531059408L46.98729784557663,174.90596727948716L47.15638917091159,176.2292959630868L48.99789938588751,177.25171849458422L50.207959182815735,185.3490141408642L50.3638402483589,192.11531469963916L54.01251400285209,197.9661233836935L54.15518480860345,206.7648829520656L54.74700444727578,211.27784047480117L57.22789123617448,216.6420787591339L58.8659634503568,215.91142743121114L59.83295446711604,215.44918478355697L62.68108647822659,217.30718557280085L65.15404711125021,218.6598439769474L65.94137859484107,233.61346084412025L70.59931619742724,250.77355665894555L74.10796119812743,253.15523789685395L75.63770928201706,251.71021344321784L75.8517154906441,247.0513513395492L77.49507180874313,245.28065965127044L80.47794846972997,251.43782806143724L82.69727211475117,247.78570751430055L83.51630822184234,247.80961109988135L85.32875586527632,254.85881608547982L90.06595502661324,253.91750905479464L90.24033045586492,260.58166705279774L91.47681077237672,255.25693760542686L93.08317836305875,250.25235155768354L95.85733291933525,254.51618066726414L96.8111136763027,251.91048808151066L97.5323938609346,248.50479329603888L98.68168646282058,243.56972285759593L99.83097906470655,253.1304430768268L106.63690490943826,258.00046841061175L106.90375215723246,254.25885470949297L108.00020371995127,256.07952009568737L108.77168289179197,252.95351455888957L109.14421221792053,248.515036402358L110.92759728981258,242.76265145782708L113.70967800196416,239.58771275163622L116.23019557023825,240.58657893640432L117.65690362775187,236.37640031845044L117.79164827762817,230.80902844734203L117.88940420008743,224.88593005356094L118.37025765650868,219.92614169639396L118.9567931912643,217.97307435423164L119.21307223122508,220.5671688441714L108.5338982155397,212.6908534868533L111.40845074623384,213.48236613837958L114.06107091242585,213.84717645975675L115.80218315298416,208.550041918569L119.6965677396047,214.4853607931905L119.80753392185576,223.4162862513258L120.22762018323478,229.21841021071185L123.43242920872373,228.51324394610867L123.72041287218481,228.87552463053393L124.82479059077869,220.9813607208019L128.40212894239622,231.60935085852793L132.07458116451465,221.41877918546683L133.4167435593608,222.5019598573038L133.88438675599025,224.81824213656782L134.76683211008202,223.21012972742236L136.35206328509716,222.04262461207196L136.39697816838927,222.31272701783342L141.3191209668113,223.33254232189438L141.5225589676049,229.67132475225017L143.82378622333522,232.4782996940958L144.31256583563157,238.30076838034464L148.7327187619655,241.34191515419505L149.35095892022136,236.06807334522705L151.14491219994684,243.0582298508011L151.2294578626143,249.67035856713176L154.66148335652213,250.22380954418202L154.99966600719202,245.55973371936665L156.97327882008588,246.3173395198716L158.53737357943416,248.57087975325632L159.08427833481437,245.24337675185402L161.53081844825442,244.2975715801012L162.09621756734316,241.39341729470294L162.79371928434983,247.7498674446959L162.81221364805833,253.59219152366785L163.31420352014646,254.8945921480797L163.3644025073553,254.70442982010474L163.8663923794434,253.83318671661203L164.6642920708677,256.0761254852566L166.8334167286801,251.91492477721815L167.03421267751534,254.2479605002669L169.01839369824265,255.53667206457905L170.32620941763014,264.78365285081026L170.8968926406356,264.659459682416L171.34075736963982,267.211656691999L172.09902628168874,266.5714204203648L173.58121743032788,261.64556063478824L175.43857995705397,254.739491990511L176.79659466365027,255.02550013263894L178.24443913683078,255.75239168352357L178.95515111362926,262.3796132145487L180.48489919751887,261.74367101240114L181.13220192731671,266.38910314267986L182.08598268428418,263.19515486808126L182.11768730778445,259.94062847684916L182.5747622965805,261.7954855969924L184.57479562905792,254.8192458288593L186.5087776625764,259.4226204600036L189.17196603660184,260.05722138525533L189.5260009990219,259.98675270288436L193.2407260524741,258.5354923607576L194.99240650086583,259.22244572211446L197.14303679496967,256.55797410709334L197.60011178376573,251.18179924500708L197.734856433642,247.41902543970872L199.22761579011464,244.2662878719515L199.89605493557934,235.27975384384357L200.58034639279418,240.33095380282373L201.05063164138204,242.1560484762749L202.45356123127044,242.2163568333516L202.99253983077557,239.25859015586488L204.69137924000017,247.17930857655213L204.79970337029283,253.73044366501577L206.47212225993383,254.24734323090445L209.560680999255,254.60786180367634L211.96230622940297,256.61189461455155L212.0944088273209,259.56810753240126L212.6096089592008,257.29257253724836L212.64131358270112,254.3005365847905L218.8289992691769,260.4365871735903L220.55425919798506,262.2975707177063L223.6322497294728,255.4062230911557L225.90705646561955,250.01378313153242L226.92688852154595,248.6672675498091L227.67723127771976,250.472480769591L230.30871502824493,256.41645925167666L232.9507669866035,255.9667289279761L233.76451898977794,271.5800431574148L237.68796614794041,268.1578471479475L238.28506989052948,270.37123792537113L239.67478922062608,263.910805590372L240.610075613885,261.4428165167735L246.75813052098542,265.7442508674714L247.33938195182432,262.8583052479412L247.3473081076994,259.52862668220746L248.70268076233734,259.8084980725358L248.99594852971512,255.41578447172787L249.16503985505008,252.4932131534232L253.57990867746727,251.08596754208827L253.6036871450925,249.6763819117094L258.00798775967627,252.668842616395L259.0172516077692,253.32271094665907L259.1202916341452,255.33215440935464L260.36205605457377,257.1287171735028L260.4994427564084,255.43872825610617L261.98691800896427,250.88364815998958L262.2801857763421,248.36684905609795L262.4889078810524,245.46633845808745L263.35285887143567,240.88241992613402L264.97772082582617,247.9567457518437L265.14417009920277,257.03729794250864L265.26570448928726,264.3675141195152L266.6290032998003,265.5884561916512L268.39917811190054,263.8187458121189L273.0571157144867,258.773420099974L273.55910558657484,263.6320598150217L274.6423468895019,266.32612580236304L275.24737678796595,261.93068657052766L285.5170327501058,259.0281784620963L287.0282864702869,257.37163220181924L287.2555029387057,255.8200194353759L288.12473803300566,257.5704947672986L288.29382935834064,257.50490172924924L288.68485304817773,258.9972281038462L294.3494124468985,261.56392313710757L294.6717427858182,261.70456918693435L298.01393851314185,271.4485016866016L298.2649334491859,281.34173684604116L302.24386369847394,283.48078722973736L303.1765080397745,280.02094979013805L303.66528765207084,278.1339986738521L304.1065103291167,277.4909645013623L305.12898443700146,281.0200210327338L305.35355885346195,280.2431071483026L306.0933334018024,277.307847951897L306.2571406232206,278.64477963861947L307.09202904206194,274.9642123933038L310.7671233161387,282.0702142574055L311.3272383313107,287.7562736515197L311.461982981187,290.2087170065553L311.8213020475238,284.5188082056114L313.00758337682674,287.42695877314566L313.16082239041157,292.3881867491109L314.58224634400847,282.20091233874564L315.0393213328045,276.9774389704098L316.207108298399,276.5243661054802L316.5664273647358,282.8945541601091L316.87026333994703,286.1602882559483L317.01557619765674,286.0413653354433L319.0208936340509,286.16533185056505L321.9562133597873,291.0797361384767L325.62602352994736,283.17970966721384L326.1729282853276,287.3451246595126L326.89420846995944,291.8218464236202L328.3763996185986,285.3554865519409L331.7185953459222,282.1223626079768L332.85996179193313,279.9351975613158L333.1215249358106,274.46276297480017L333.48084400214736,274.1622550793436L334.9234043714112,271.2600233691995L335.1030639045795,268.2164623993911L335.5971276207926,267.31386680518744L338.4029868005694,273.2464719445981L340.03841696279335,268.7724638411438L341.2299823960131,270.5900882416458L343.7874886917042,269.8976691374523L344.3555298627513,275.3825967558862L345.20627059334277,271.92700350729314L348.3925852551232,271.84487535580513L348.4876991256241,272.8970986750666L348.91306949091984,271.57026138930485L349.7188953382192,265.4091742330503L350.07293030063926,257.51097789547106L351.82461074903097,251.84633452983923L353.3490747290039,262.90205668989995L354.03600823817715,264.46071888899365L354.79427715022604,269.6480270445878L355.0901869695622,270.93724918516614L356.73618533961957,269.13756853198197L357.232891107791,271.23151311814L357.47595988795996,276.2173603565605L358.03343285117364,270.5230252650715L358.76792329559737,271.1742025954277L359.66622096143925,269.31663380207095L363.26997983264033,276.9057964166117L363.4971963010592,277.29347151586074L366.9794207821758,279.7874526052151L367.36251831613777,280.09979769633355L370.7390607189201,283.9333699044406L373.9253753807005,279.64583969971204L376.8078540672697,274.4091407939896L378.82638176345563,274.0296831944864L384.3614806162169,275.07762767490493L390.8424340700705,275.1532391751218L390.8662125376957,274.57619908481115L391.2017531364072,267.86652047594634L395.7407984008673,264.94091695245396L396.2559985327472,262.9973824672586L397.0644664320049,260.2164633474637L402.47803089468164,263.95115359270216L406.7370186515557,266.4585855021814L407.674947096773,269.92489825184634L408.0474764229015,272.1137091508901L408.54418219107293,270.2104040252319L409.0884448944948,268.1773372219618L410.15054978175493,270.35783671393915L414.57862886396396,271.9219118652584L418.20616620279026,281.10239629272814L418.2167344106237,290.1582654927643L421.79671481419956,291.6488699075007L421.9050389444923,292.6525791552152L425.26044493160765,286.67176334006444L426.095333350449,290.98508688674815L426.65809041757933,289.41359243570986L426.9460740810404,294.01783024514526L427.1732905494593,297.0803467752155L427.4665583168371,293.87959850677214L429.0544315438106,300.42917604946723L432.38870111525915,298.9977732257322L436.11135232458633,303.1513307193391L436.1219205324198,306.6868912314371L439.2765305706999,314.5934298171666L440.2884364707513,307.1017884163165L443.50381370407365,304.1068901177981L443.5910014186994,299.4751511791176L445.5117731924262,305.99507639043975L445.53290960809306,311.17680127630166L445.71256914126144,308.56862054651555L445.7627681284702,304.7450122477551L446.7588217167714,301.6437075532741L448.5527749964969,295.4183987323552L448.6452468150394,290.6733432257648L448.65317297091457,286.23180575747733L448.97814536179266,278.20878370779053L449.23706645371175,275.23114925608127L450.42598983497317,274.68537748845233L450.5607344848494,279.9344435266527L451.8659081522785,278.4890731673786L452.06406204915544,279.86446131159363L453.1816500275411,278.299027745454L453.86858353671437,286.85059487344057L454.2437549148013,290.70800296722325L462.69832118154875,290.82274817626455L463.2188054173453,293.995596687542L464.38659238293985,299.2567210053281L464.5583257602331,309.75060154225156L465.87935173941247,312.8519948762939L466.2492390135826,307.37135692545814L466.71688221021213,304.6545819120883L467.5306342133866,301.20592931421487L468.5108354899376,312.32860042208193L468.7037052828978,322.8004249331041L471.89794610055327,321.01013178104233L472.43428264810007,318.0685885652325L472.9891135593554,321.7625720323303L473.4937454834019,330.09101842800663L474.99443099574955,329.00497677222654L475.9693481683838,324.754461096345L476.817446847017,330.0077835555211L478.6985878413683,326.4062647794181L479.4991295847509,324.79487142214685L480.2626826007166,325.80513692578705L482.74885349353195,328.77379593874537L484.07780562858636,329.4390724902441L486.21258361094004,329.46808061833207L487.10559717286526,325.2731876979339L490.846742745901,321.2916745433028L492.11228563395474,314.71273854525487L492.9735945723796,318.8664349286522L495.7160445051559,318.92043743011294L496.12027845478474,320.94412831344187L505.2697043865805,318.0324091850598L508.4718713601111,314.9942481866357L508.7942016990308,318.83082799969867L512.1681020498547,314.99879458620535L512.2420795046888,312.0978142660952L514.4878236692936,306.2171045986977L514.7282503975042,301.66844866018204L516.5089934174379,296.9771310734951L516.5644765085634,290.7540418447478L522.4721046874532,300.5015800126876L523.2198053916686,300.42909250678565L528.4431421133436,305.5288028154597L528.8526601668892,307.8457774898118L529.0693084274745,309.0085727949855L530.9240289022423,306.19324527513436L533.6611947311018,301.6552586842525L534.7734986055707,299.3341250522286L535.2939828413674,292.52385851591134L536.7788160419649,291.1583365465642L536.9954643025503,290.85818511990595L538.01001225456,298.2470741341191L539.4314362081569,293.3428330835343L539.9149317165364,293.5382597469157L540.2478302632898,291.61656662349225L543.072183806775,289.71697057527024L544.4671872407883,296.445729705873L547.3945808106497,303.37156892792206L547.7750362926532,301.9708191467754L548.7076806339538,307.8637403029161L551.5928013724814,307.8864557528942L557.2282981996602,303.6752017756763L559.569156234766,306.0734498937238L564.3750487470202,303.81413114030363L565.6802224144493,305.394925770796L565.9153650387433,301.75636159704715L566.311672832497,298.2824225958089L567.2575274335894,291.70226214606663L567.4873859539666,286.1055333954442L569.2654869219419,287.40931514610014L570.245688198493,285.3444404274835L570.6895529274973,284.23622885816786L574.6631990728685,287.2523092384142L575.2153879321655,289.0332207772062L577.651359837772,285.82262331075276L577.8547978385657,281.4367447196013L579.035795063952,277.4573154781698L582.3119394923166,284.73552387132474L587.2631448622806,285.8762937329536L587.5194239022413,282.7070723198619L588.6238016208353,288.60697206428404L591.2367910076518,290.6499521878004L591.5934680220303,294.55515410296846L592.4838395319972,289.4086383146348L592.8299483385422,284.22325175478863L595.6516598300691,283.5584500158866L598.1536830346347,284.7293687104026L599.0836853239769,281.2737023747553L600.4099954070729,279.9074112578497L601.2158212543723,277.61976822429676L602.2832102455491,272.26122741678284L603.9477029793151,271.482648833978L604.4496928514031,271.1491636108336L606.4867149112976,272.3433323553673L607.4642741358903,269.4911544766963L607.6254393053501,264.7843030280425L608.5950723740677,274.2835298877871L609.9927178600394,271.4770142458357L610.7826913955887,274.6749794395093L613.0918448071941,270.8562880661972L614.896366294753,274.3689744026843L618.9598422067085,273.1729628015679L619.715469066799,275.2866798948263L622.3099640899071,276.9481193299289L623.4645407957098,281.1889048161396L623.900479368839,283.24179739479666L625.9295752728583,278.994876944005L629.1713730257643,274.51746996555516L629.5465444038513,270.86387670228623L630.6747005900704,265.298797936945L630.8887067986974,258.4663728637338L632.6060405716305,258.94965212595486L634.8914155156107,258.9683730105288L636.2124414947899,261.5126157038122L636.331333832916,263.11400363557493L636.5030672102093,263.6986836515082L640.3155481861209,262.5142429574361L640.8835893571679,255.95590493493376L644.9787698926237,257.0496371517216L645.2773217639183,256.17512006156153L645.4649074529617,252.25512120491453L645.5309587519207,248.01712218617973L649.0580981163293,247.44359007369547L649.5468777286256,244.2239719876727L650.4319651346758,244.90052512786374L651.1004042801405,253.57740429167598L651.1585294232244,263.6657638289646L653.7503823943741,264.8339123032465L655.996126558979,258.7696192210784L657.0503052903641,255.19513550693281L658.0120122032066,254.91870993566914L658.3818994773768,260.1050279532721L660.8046611231916,259.2691188719281L665.5762069599872,262.0298805091021L666.2472881574103,259.19701103421653L667.1138811997519,252.51547450331623L668.2895943212214,260.9448477802501L669.5472110534001,264.0577774874444L672.8577021572235,269.34176397997544L674.3636717734878,271.8975884918158L674.4508594881137,276.4068665973698L674.5538995144897,282.2968280869241L676.3452107422568,284.74328219823127L676.8736211339285,282.8606789785391L680.7917841881742,283.1614555668369L681.6398828668074,280.75329773183796L681.7534911010167,284.0319114480336L685.8381034286391,292.82180674574533L687.5554372015722,297.33433690252014L689.0693329737117,305.24971298703116L689.1987935196712,315.51321320130705L689.846096249469,312.7284083414174L691.1750483845235,310.8182413648965L691.2146791638988,310.43455429463313L692.2186589080751,310.37268025005096L692.6519554292458,314.7181423375321L693.9729814084252,310.8563737833774L694.2741753316781,310.61241266482347L694.2926696953865,310.4528625578558L695.2411663484373,316.0257653405471L698.2689578927162,314.33621260211567L699.6322567032292,312.6167551198996L700.4090199789866,311.0118311267231L702.5173774417569,306.7105733684966L702.7736564817176,300.93155925436554L704.5385471899011,305.6580002764823L705.4104243361594,305.590465410407L708.316681490354,298.155100762357L708.4408579323967,296.0018095627323L708.987762687777,298.86438894429335L711.6483090098441,308.8123519229393L714.0578603958671,306.1011625363909L714.4277476700373,305.62830068615193L716.2349112095545,312.1575310196398L717.9680972942379,305.5293318873537L718.8426164924545,299.39733782978203L719.5744648849197,301.53499845858045L720.6207174604299,298.3300315817423L721.6405495163561,300.70525426815135L724.0712373180461,298.41168976080075L728.3777820101706,296.27790956390754L729.0990621948025,292.1637151945205L729.9815075488942,293.29662252298033L730.7688390324851,291.01727733863953L730.9432144617368,291.3808647049614L731.2496924889065,292.4383311492152L732.1347798949564,288.79053543978347L732.4174794545008,293.0204780417626L732.9591001059645,294.91592137813774L733.1598960547997,297.3634191424944L734.1876542666012,307.75229487433853L734.7372010739397,316.63928373985823L734.760979541565,325.004651583454L735.8970618836591,322.73726109671037L738.1771527237227,323.2093405490958L738.9961888308137,323.4451223629149L748.8246221159077,320.9128565558978L749.7282038856662,316.99814188575766L751.4032648272656,316.7239203216346L752.1826701549815,309.9877644257972L753.1205986001987,313.2604733514387L755.4482463755126,311.3028964089287L755.8154915977244,315.9991876136195L756.1087593651023,315.66863509004975L756.4337317559803,317.4925366960725L756.637169756774,319.6672010505448L758.4469753482496,316.7376781874392L760.2039399005581,314.07226623764427L762.8380657030415,314.7940146363651L765.1472191146469,314.0467731927113L765.6650612984853,309.15137835273487L766.2331024695324,305.07463111464796L766.6452625750363,301.1072026088368L767.7971972288806,293.41147524922803L768.4180794390949,299.82799055941103L768.787966713265,313.65682303921955L769.8712080161921,312.3134817242018L772.3230322335488,311.2635578936983L772.7484025988445,306.6280057217086L773.8025813302297,301.44891565745456L775.4829263757457,301.3340630928061L775.6599438569558,298.338396065345L776.9122764852177,289.9896739150158L777.9585290607276,290.95044605590914L779.2319981046564,290.92994764970337L781.535867412345,285.9971022535374L785.6099115321341,294.1024447735886L785.8476962083864,302.3483302240956L789.8028479900491,304.3495918573103L790.0617690819684,303.99718998735784L791.731545919651,298.97773193222986L792.756662079494,297.2396595092571L792.9680262361628,292.8145524668292L793.4647320043341,288.4198250078515L796.1675511577349,284.8116575323168L796.2256763008188,280.8795898425702L797.2930652919958,285.5002766966076L797.6761628259577,290.3241793501122L797.7659925925419,297.9239120498004L801.5124222694944,295.9715724472834L801.6339566595789,300.20368138515136L802.1676511551673,300.8430504415104L802.9153518593828,297.7383958714104L805.480784310949,300.29019900473077L807.2060442397571,297.8615395812558L808.0356485546816,295.65647937022067L810.3210234986619,300.33035428711383L812.2180168047634,297.6470411907851L813.0370529118545,292.3611886142647L813.3435309390242,287.128240271502L813.5390427839426,290.16059820951193L813.652651018152,293.32523610451267L816.0780547159252,298.33474557714834L818.8495672202434,301.23028614427403L819.0186585455782,303.92020460054533L819.0794257406205,305.5387055432849L819.9354505751288,308.3837955708173L821.2115616710159,309.57957187873194L824.0887562536685,307.8453087500102L828.9369215972565,311.21279250205265L830.2922942518943,305.18080783352275L833.6133535635511,302.48138189859236L834.3293496442662,297.5072674419267L834.3425599040581,292.99919143655507L834.4825886578511,290.6476075510675L836.456201470745,285.47436905023386L836.8577933684155,286.40761642404203L837.6715453715899,286.30670149271356L840.0018351988622,293.81388221145426L840.4879727592003,290.3168853104428L842.2264429478001,294.43711998255526L843.8143161747736,294.4305577777834L844.929262101201,288.7382477058766L845.1538365176614,282.8238163516739L846.2370778205884,283.8031042270881L846.477504548799,287.9762272865299L847.0191252002626,286.76628021790526L847.5184730203923,294.5503065425993L853.6586017716177,294.3828297579397L854.4987742943756,301.51302798408403L854.5225527620009,308.82341284976L856.276875262351,304.8835127728553L849.6585351066627,316.25386828794717L851.4947612177219,316.94927023423946L853.1116970162374,323.98834178962716L853.2702201337388,330.0353643390217L854.9135764518379,327.2546180813238L856.940030303899,334.12850808218843L859.5107468593818,338.75997020059157L861.2043021646897,336.0954466421847L864.1184854747593,330.0871181663504L865.4738581293972,329.52188776948276L868.1185521397141,337.34317151993145L868.1581829190895,344.637560595746L869.5267658335192,340.8246267704078L870.6734163834469,337.20571262587833L872.3748978446298,337.4381130982082L873.0248426263861,338.2048107629207L873.4264345240565,346.2155244772247L875.0222339069051,352.9566820203792L875.8122074424543,349.4414176406133L875.949594144289,346.2111952844271L876.266640379292,347.84365883703134L876.9033749012564,352.1556985867144L878.3829239979372,349.473996444526L879.0302267277351,348.08498414508887L879.0487210914436,346.85072649127034L880.5811112272916,343.96624798297427L884.1373131632422,347.6923669807309L884.224500877868,350.8855476569982L884.4754958139121,351.14016156064304L884.5204106972043,350.50634136103866L886.5310122375151,347.18763701925076L892.5707430143228,346.128911826316L894.1797526569632,345.9070822903899L899.7386299773495,348.8728411927667L903.5643212130527,344.79067804432384L904.0557428773075,344.28233248080187L904.1904875271838,343.7322928151277L906.3490439771628,337.07156932509724L906.9672841354186,337.61731727777715L907.3371714095888,334.1686431314072L908.4574014399329,334.3114729539852L908.7876579347277,334.76794666282973L909.4508129762758,343.3551922137986L914.6582973862005,339.10046170305924L916.3782732110919,337.8541458392429L916.4628188737595,335.86807897909466L917.4060314228934,329.0911888356117L917.6200376315205,321.34936566131825L922.951698483488,321.2415091034444L923.7733766425375,316.5880295293565L926.6003722379813,321.87282329011873L926.8090943426917,325.11658592814894L928.0772792827037,323.69941093806176L931.0310933721486,324.19038049842817L931.3481396071517,325.181866731974L935.3508483240649,324.04523258444215L937.2901144615,318.82028386584454L938.8806297404319,314.80326098413855L945.7235443125808,316.99414347083024L948.1515900623122,315.5809142606795L948.4131532061897,313.09594951179446L948.6615060902755,320.5112346803098L949.2982406122399,319.8095925343589L950.463385525876,330.2516741332096L950.7513691893371,328.61139585207786L951.723644310013,329.7609197964002L951.8821674275144,331.9079179705332L952.6113737680215,325.9941524429529L952.6166578719382,320.22558396172917L952.8491584442737,316.29405103441184L953.8716325521584,309.56666857308613L954.2098152028285,307.3216187472772L954.54535580154,306.02853745197217L954.862402036543,300.85656601495515L954.9918625825026,295.70841306914883L955.8029725337185,292.8892934003641L956.1332290285135,288.0813788838309L958.3208480500344,282.7098173403801L958.973434883749,281.2629221337589L959.9932669396754,287.1796082239958L961.2112528924787,292.3824467713264L962.6643814695758,293.578474122403L967.079250291993,296.35942272280374L968.4372649985894,299.37424093370174L970.8124697091537,307.59807576091487L972.7992927818394,307.68731084685044L972.9815943669661,310.91330349191264L975.8429366378685,311.2028527251821L976.8839051094617,310.87189417450463L978.6778583891871,312.7769369646108L978.860159974314,312.50372531008406L982.1917874938042,311.6452261259532L983.3331539398149,312.6252991685679L983.8642063834451,312.1321575280484L984.4665942299508,307.86755418083493L988.2315182706118,312.3893375593688L989.2249298069546,309.65029407402756L990.4666942273832,306.5728313478569L991.2857303344744,303.65084702224203L992.5565573264447,297.6482807877697L993.5341165510374,295.9205503355111L994.4271301129627,292.631774606699L995.9410258851021,300.81073037427416L998.7944420001294,301.79637299573153L999.6029098993871,296.97729403289054L1002.041523856952,295.1869278022854L1002.6307014436661,289.03599327217853L1003.8698238121362,291.58829742264186L1005.0191164140223,298.987062084931L1006.8685527848731,293.2031473227916L1007.0852010454587,289.7535946868361L1007.2173036433766,287.10212669698444L1008.142021828802,286.0324674849174L1008.4247213883464,286.36336046720464L1009.719326847942,295.9117220633152L1009.732537107734,304.76163336717184L1010.9478810085789,303.01105876178485L1011.7669171156701,308.52221051952415L1011.9412925449217,311.067035365548L1013.8937689421487,309.3635981285839L1014.2662982682772,314.68922647022555L1015.0113569205344,310.744100076512L1015.3865282986213,304.5709110409544L1016.5463891083407,302.19595525125703L1017.0430948765122,302.47988466327973L1017.9202561266871,301.3838533017971L1021.8674817524748,297.2750885698188L1023.8331684094936,295.8053118175318L1025.3734847012167,293.5370387130386L1025.714309403845,292.0337217610336L1026.0366397427647,284.8425299119815L1027.547893462946,286.51095609971196L1027.587524242321,288.2519717160894L1027.8358771264068,290.16619064119004L1029.7645750560087,295.9789072019435L1029.9917915244275,297.93533244852347L1030.636452202267,294.8334240171744L1032.7765142885373,291.321334819833L1035.616720143773,289.04544596316293L1036.4040516273637,297.6300135674525L1037.4053893195817,295.677903157689L1039.0461035857222,298.10557476009217L1040.1319869406077,296.91810778099847L1041.0593471779916,297.9749816248233L1042.182219260294,304.02643295764096L1043.1729887446786,301.2364583119389L1046.1532233537068,305.25863497658713L1049.683004770074,298.46306244060054L1049.7437719651164,291.45092918110356L1050.0159033168272,286.1644196100332L1053.6196621880283,279.5091818406738L1053.9842653582818,273.95288656464317L1054.2009136188672,268.45397956419544L1054.3145218530765,261.9388632568431L1055.6276216763808,269.07947646259566L1060.44144034451,269.6049995514003L1062.1667002733182,268.67819332741135L1064.9804856089702,264.5198336880025L1065.7704591445192,262.69355864788645L1066.4811711213179,270.2075777825861L1066.9620245777392,268.13793776623896L1068.898648663216,263.9634059767086L1069.3768600676788,267.83499007675016L1070.1192766679776,273.1964774172196L1072.5446803657508,271.95215460595625L1075.752131443198,280.3130358742371L1078.1933874527215,287.6921037426271L1078.5130757396828,285.60970394193396L1080.8037347875797,285.15912322193685L1081.9609535453408,285.8758468268146L1082.0349310001748,285.1454837729768L1085.028375868995,283.4625265411024L1086.1512479512974,285.27302954736587L1089.7497227185818,277.9441562407419L1090.9386460998433,283.38789159931684L1091.9399837920612,281.2376042643889L1092.2675982348976,283.87192321795123L1092.8488496657365,297.2236786097924L1097.0946271628186,299.5469560804422L1100.3152885000577,306.4329418100957L1101.665377050779,311.16759516797856L1102.1462305072002,311.9130359866478L1103.1634205111684,315.0677938526806L1103.3800687717537,314.40443645883903L1104.3153551650128,309.7859409151159L1105.0049307261443,312.9985478699631L1099.6362811467595,308.4758852324594L1102.6957773145389,309.18440794352875L1104.6508957637243,311.0195931093343L1109.1846569242675,320.887252363572L1110.6906265405319,327.48936971923047L1111.2401733478705,328.61657562953087L1112.4845798202575,327.7456597874281L1113.507053928142,327.93639042324173L1114.9522563493642,323.53184135609763L1115.480666741036,316.62811210882523L1116.555981888088,315.15753661278706L1117.8215247761416,314.4909987814874L1118.7251065459004,323.2877797583661L1120.2442864219565,328.16963385127957L1121.161078451507,321.5966935541424L1123.4358851876536,322.268656810879L1124.1122504889934,322.4746203753583L1124.5191264905807,330.7702221809281L1127.2166615400647,331.7858286427991L1128.3950167134926,330.6483025385585L1128.706778844579,334.4023541273866L1128.7992506631217,338.43049886311593L1131.969713013152,337.65900603992446L1134.8680440114713,340.3833130980106L1139.0398440537194,335.8982026727015L1139.2670605221383,334.2396393013802L1140.0860966292294,327.4645092810982L1140.8919224765289,321.1503795473312L1143.2248543557594,322.5064736055617L1143.8246001503069,321.28853838546473L1144.2526125675608,323.5244826031776L1148.2341848688072,327.0111600280692L1148.9845276249812,327.3136402205906L1149.7771432124887,325.15294930265276L1150.2659228247849,321.98169158402214L1151.5446759726306,321.0246756200633L1152.7203890941003,319.13428235491097L1156.2211079389251,317.4606593355504L1157.9569360755668,319.29272494245106L1158.4562838956965,315.49323866042545L1158.8076768061583,311.99438118164596L1160.7073121642181,311.89000997934096L1161.111546113847,320.5592825721384L1161.4127400370999,325.2961628436634L1163.0904430306575,324.1801503336346L1163.6267795782044,325.7079180917721L1164.7575778163819,323.02515813045346L1167.4101979825737,322.04924968318204L1171.6797539472814,330.33126879116696L1172.3429089888293,327.9528812809701L1172.5199264700393,325.32484054452823L1173.5952416170912,333.7373336770486L1174.0866632813459,334.99484452796696L1177.0325512149157,339.42298067178524L1177.909712465091,340.2959297203887L1178.1633494530934,336.71095565489406L1178.52266851943,334.3167852604813L1179.804063719234,334.41959950794586L1184.364245399361,337.11317202028744L1185.2546169093275,332.8098931594045L1186.097431484044,330.48831141900826L1186.4937392777979,330.27814078760815L1188.5518977533593,326.5751380789878L1189.8861339923303,322.7463851239594L1192.9931870953599,322.8309830509854L1193.9707463199527,321.4176293323287L1194.319497178456,319.6404254571708L1199.0223496643341,318.5843829907492L1201.0567296722704,322.6577316891594L1202.3698294955745,327.81843846001163L1202.594403912035,330.09910965875594L1206.5178510701976,329.28305860607486L1207.6512913603333,325.8500914806097L1207.936632971836,324.0107084621462L1208.2166904794221,320.46045673001623L1208.3752135969237,315.4236703587053L1208.6341346888428,315.49978167725845L1210.7372080476962,316.2437324493966L1211.9789724681248,320.68469478011417L1212.7821562634658,321.1884330686275L1214.9010819340692,318.13222060363785L1216.4229038620838,316.1129505235823L1218.9566316901498,315.4971963981493L1219.1812061066103,323.8451081726298L1219.3846441074038,327.9062678282408L1220.2538792017037,326.6234817621746L1221.8760991041358,336.0017418744588L1222.3965833399327,341.53010840931125L1222.6634305877267,345.1818156132975L1224.3041448538675,355.5616087088945L1233.4614969415384,361.80936941347346L1234.0744529958774,356.1469459321723L1236.4443736025253,350.8848800516924L1239.863188836641,347.16155875134245L1240.4550084753134,344.45282503324165L1240.7377080348579,344.1170628964102L1240.9437880876098,338.01695622922836L1242.6056387694175,340.0460805017145L1243.8764657613879,335.7408243421294L1243.8976021770545,332.13567168011764L1244.4022341011012,330.3186621663539L1246.566074654997,330.3664663731965L1247.0574963192514,338.7237743745726L1247.7787765038834,342.6997781687513L1248.1909366093873,346.2237729339429L1231.3214348552679,339.57220149012414L1231.8287088312727,333.20113703819175L1232.3280566514024,333.7270413376588L1232.5790515874464,340.71285357621923L1235.9001108991033,349.667768321189L1236.0876965881469,356.9940788512621L1239.1128460804673,350.50486495891977L1239.9292401356001,354.1519072517619L1240.63731006044,349.4934549645205L1240.9200096199845,347.52484021435055L1241.4484200116563,357.1024121284795L1242.8645598613366,361.6072733449039L1243.855329345721,361.61909990992984L1244.3705294776007,359.17209539713434L1246.5713587589134,358.4585473034453L1247.2847127876703,352.64799159611783L1247.5357077237145,345.47970961040375L1247.9293734655098,341.01619171560765L1248.3705961425558,349.6171215319405L1249.5912241473175,343.4583702090605L1249.8290088235697,340.31599774958715L1251.445944622085,341.50185400264814L1257.9533185955222,344.0013834403315L1262.6429608216088,345.1719945476649L1264.693193141295,355.5572045886929L1266.0538498998496,357.8247789031519L1269.084283496087,360.2863728618371L1270.7302818661444,359.0666785712109L1275.6894133919834,358.8580657805259L1279.0765240025992,362.45628745828543L1279.657775433438,364.447366082284L1281.713291857041,360.38716704777744L1282.2628386643796,355.69054279312707L1282.8942890824273,357.81878492838143L1283.5019610328497,357.44232046645914L1285.0977604156983,355.32343143796857L1286.5588151486706,351.871269006206L1287.1664870990933,351.9069860594775L1287.924756011142,352.7278049088508L1288.8653265083176,359.9691305616328L1290.9076326721288,355.4032960942732L1291.005388594588,352.6469233380702L1291.483599999051,353.68373897573696L1294.3872151012872,361.0131681345397L1296.8363972666855,357.48959206878897L1298.0623093753638,350.2754279455795L1298.070235531239,343.3920722696929L1300.3054114880103,338.11722318654216L1301.547175908439,339.3355755319666L1301.901210870859,343.45717832657357L1302.4956725614895,342.3970316219719L1302.6172069515742,344.4243779865292L1302.918400874827,347.5305159423144L1303.2407312137466,346.4924207549974L1303.330560980331,345.6993224906537L1303.4441692145401,344.76395726408657L1304.8550249603038,343.01819221071736L1305.9276980553973,345.47160887142485L1307.4548040873285,339.54639679132964L1309.2698937827208,340.4836492567404L1309.616002589266,341.54932941250206L1309.8194405900595,347.0080759625418L1310.604130021692,344.0869816322332L1312.6437941335448,341.5539466142831L1314.1207011782674,342.2509935932366L1314.5487135955213,344.943604649859L1318.036222180555,341.4909761472224L1319.8433857200719,338.6703380500707L1320.9424793347491,336.5538933090887L1321.758873389882,332.88178699471786L1324.588511037284,333.88062341829993L1324.8078013498277,333.28010206030496L1328.2741735191944,342.8100831808814L1329.9069616294598,339.9993060037373L1332.1104329627308,340.07336324381384L1334.6203823231715,343.18496916606125L1338.7182049105857,341.6336348672578L1338.868801872212,338.43172188681734L1339.1673537435065,332.5149464237973L1340.9586649712737,328.35653667668265L1341.4870753629455,323.8131124984342L1342.4144356003294,323.1599943906708L1343.6879046442582,332.4988018628067L1345.043277298896,332.1819665623239L1349.3445378871038,332.45618365929187L1350.0843124354442,331.2823502107401L1351.2520994010388,338.53082107169433L1353.0196321611807,337.89724497011525L1358.6339925726927,336.8909802526973L1359.4900174072009,336.1654559248431L1360.0554165262895,335.64913334071576L1360.3724627612926,334.025621166707L1360.5547643464192,331.39485985004603L1363.8996021257012,333.6200009774517L1367.6803784781125,327.49875618652317L1368.9353531583326,321.80512628267246L1369.9419749544672,328.26743618734463L1369.9710375260092,333.1667624695913L1370.1269185915526,332.66443092512964L1371.7676328576931,328.8162361323709L1374.05829190559,323.4548512660096L1374.3040027377174,319.45454922473965L1374.4096848160518,316.7255728076523L1375.6963641197724,310.70152770724366L1377.7967954266674,305.4047624966254" fill="none"></path></g></g></g></g><g opacity="0.2"><g><g><g><path style="fill: none;" stroke="rgb(51, 187, 238)" stroke-width="2px" d="M5.491229787596811,-256.6179695844984L7.319529742780946,249.19539092534313L8.188764837080917,26.521624811272943L9.847973466930105,41.405165465289656L12.172979190285654,-107.11729516374379L12.77536703679141,482.55059256479444L13.176958934461913,240.1695077091969L19.343508205270833,-44.365827325279554L20.775500366701184,94.62893972531248L22.027832994963152,269.8669308950097L24.32377614677675,-27.480998507090305L28.099268395271164,385.6831687198952L28.90245219061217,72.62573896423243L30.83379217217229,295.7416419617373L31.251236381592943,419.5176796618538L31.629049811638218,191.2795374300159L31.679248798847034,174.9337856007472L32.24464791793577,282.92351619544473L32.33447768451996,312.65304961929326L36.9501424557724,406.04654415693886L37.2434102231502,467.23654033979983L37.4283538602353,292.4668664446948L40.889441925685034,249.6452623916623L42.065155047154605,290.05742668551954L42.318792035157024,68.69521144736308L42.68867930932723,50.86456033304779L42.902685517954275,126.49429617926413L43.549988247752125,29.860058289267954L44.435075653802244,-13.785349155354936L45.140503526683986,423.71408932491073L45.45754976168702,368.5588490898455L46.569853636155976,283.0793797596327L46.98729784557663,194.35401068847946L47.15638917091159,202.04420175486035L48.99789938588751,197.42234315689532L50.207959182815735,346.8138896445884L50.3638402483589,328.4214265552981L54.01251400285209,316.97944715106996L54.15518480860345,387.4067150441239L54.74700444727578,304.7512122394362L57.22789123617448,328.68576178490883L58.8659634503568,200.52723910803797L59.83295446711604,205.64162656883673L62.68108647822659,257.0183824360381L65.15404711125021,247.77297769475143L65.94137859484107,557.6139460006949L70.59931619742724,624.9611857984864L74.10796119812743,305.40710486804284L75.63770928201706,219.82230458182084L75.8517154906441,143.66736711961616L77.49507180874313,205.7772864650051L80.47794846972997,389.50499019004224L82.69727211475117,165.48990677501794L83.51630822184234,248.35077447435444L85.32875586527632,415.1656642540384L90.06595502661324,232.4190337725767L90.24033045586492,413.41134366518133L91.47681077237672,132.66236821023296L93.08317836305875,134.59273259316754L95.85733291933525,353.4136451530328L96.8111136763027,191.26266197644966L97.5323938609346,168.97271913352387L98.68168646282058,127.95449167534022L99.83097906470655,477.79813670673093L106.63690490943826,372.7775718526178L106.90375215723246,165.82774398016144L108.00020371995127,299.2263293706394L108.77168289179197,178.68013629244538L109.14421221792053,142.79509367528286L110.92759728981258,105.41962037440481L113.70967800196416,163.60965311392303L116.23019557023825,264.5425846660914L117.65690362775187,135.18965488681226L117.79164827762817,96.73251188860019L117.88940420008743,81.96503685411108L118.37025765650868,100.02575665204569L118.9567931912643,170.67395235803724L119.21307223122508,283.49882853327273L108.5338982155397,21.29857818001176L111.40845074623384,232.74646444802104L114.06107091242585,222.73960174081915L115.80218315298416,79.2405886283666L119.6965677396047,359.5776858256497L119.80753392185576,442.0332848199678L120.22762018323478,371.43114503933396L123.43242920872373,211.207713670091L123.72041287218481,237.77694340358784L124.82479059077869,26.794210262627132L128.40212894239622,493.33496835692944L132.07458116451465,-29.802029640082594L133.4167435593608,249.23214191310956L133.88438675599025,282.03446105006503L134.76683211008202,183.44942072781518L136.35206328509716,193.14975957149088L136.39697816838927,229.00292633191722L141.3191209668113,248.61365653990802L141.5225589676049,386.935749260847L143.82378622333522,302.17297106833894L144.31256583563157,382.97512718511786L148.7327187619655,316.96121228596644L149.35095892022136,104.84168296602212L151.14491219994684,417.10591952781317L151.2294578626143,414.41027676378104L154.66148335652213,264.0213675321951L154.99966600719202,129.2157443243746L156.97327882008588,265.2262749168224L158.53737357943416,304.84712106720417L159.08427833481437,162.10431577955737L161.53081844825442,220.6543581951547L162.09621756734316,168.76036967614905L162.79371928434983,406.7988612521724L162.81221364805833,399.8421899008027L163.31420352014646,287.51138950497784L163.3644025073553,249.9401140664719L163.8663923794434,231.9964442895229L164.6642920708677,312.31436864147145L166.8334167286801,147.5408931044397L167.03421267751534,312.78739698018427L169.01839369824265,287.8833995035929L170.32620941763014,496.95915951531225L170.8968926406356,261.5402070953635L171.34075736963982,331.3323485429492L172.09902628168874,250.48162862090754L173.58121743032788,137.81908493372697L175.43857995705397,81.08779452622775L176.79659466365027,262.2189753388043L178.24443913683078,274.039199284215L178.95515111362926,429.1440946436575L180.48489919751887,245.73742298458748L181.13220192731671,383.33743379793236L182.08598268428418,182.7706993606343L182.11768730778445,177.9740391894793L182.5747622965805,308.5200166596294L184.57479562905792,79.05195855850434L186.5087776625764,375.4263617948738L189.17196603660184,276.051784627025L189.5260009990219,258.2103519729312L193.2407260524741,221.94565852678897L194.99240650086583,276.5449228812375L197.14303679496967,189.35957957678048L197.60011178376573,115.57428392909077L197.734856433642,152.4944481175005L199.22761579011464,164.7206673499583L199.89605493557934,8.51457833093093L200.58034639279418,367.8080789111889L201.05063164138204,288.221424213776L202.45356123127044,243.7387130147098L202.99253983077557,164.5878669056442L204.69137924000017,447.1640555336037L204.79970337029283,419.15232609214536L206.47212225993383,267.30078379896827L209.560680999255,263.71301549453256L211.96230622940297,307.2297476057131L212.0944088273209,334.2426142629616L212.6096089592008,199.80731350839957L212.64131358270112,178.70873081098813L218.8289992691769,415.4718365456153L220.55425919798506,309.32122569394505L223.6322497294728,81.26198670803893L225.90705646561955,113.73753143718875L226.92688852154595,214.63624331962558L227.67723127771976,296.0992609485612L230.30871502824493,406.6597793890309L232.9507669866035,244.59842362138826L233.76451898977794,666.2765618682151L237.68796614794041,181.64177839331487L238.28506989052948,326.3306047347049L239.67478922062608,100.56867749427852L240.610075613885,199.04046477259513L246.75813052098542,374.5097902849292L247.33938195182432,189.88135922579565L247.3473081076994,175.3273586789191L248.70268076233734,266.8862101563584L248.99594852971512,144.3233066244827L249.16503985505008,178.57803979836982L253.57990867746727,215.4937976183484L253.6036871450925,214.02375810769206L258.00798775967627,328.35969052100177L259.0172516077692,269.8621026402394L259.1202916341452,306.1620001575712L260.36205605457377,302.5750287495539L260.4994427564084,212.68708155646866L261.98691800896427,135.65054227420936L262.2801857763421,184.69586047871928L262.4889078810524,172.08614656396944L263.35285887143567,124.91067549085525L264.97772082582617,426.93936351149233L265.26570448928726,449.8326975719299L266.6290032998003,296.48073995167726L268.39917811190054,219.04059607162617L273.0571157144867,131.1113733987187L273.55910558657484,386.5727395041339L274.6423468895019,334.4967304679127L275.24737678796595,150.7065875646806L285.5170327501058,185.58060300818764L287.0282864702869,215.45226525207156L287.2555029387057,216.5554042764426L288.12473803300566,301.86813475016936L288.29382935834064,255.8449758980678L288.68485304817773,296.76321629387166L294.3494124468985,326.5196098146464L294.6717427858182,265.2639634297869L298.01393851314185,518.0457653283177L298.2649334491859,531.7205313062648L302.24386369847394,337.6166736984852L303.1765080397745,192.45711595511787L303.66528765207084,230.37729139610516L304.1065103291167,261.2162921394121L305.12898443700146,370.338459420922L305.35355885346195,260.5796656536269L306.0933334018024,203.01669664287297L306.2571406232206,312.4827012907944L307.09202904206194,181.80776722964248L310.7671233161387,461.9270773234017L311.3272383313107,431.6747329728201L311.461982981187,352.28238037271814L311.8213020475238,140.50078201043706L313.00758337682674,361.0360531475894L313.16082239041157,417.9642004085645L314.58224634400847,24.34426941489295L315.0393213328045,144.76192778842437L316.207108298399,265.0562078458829L316.5664273647358,444.1373726221144L316.87026333994703,368.82332494823595L317.01557619765674,283.03114408818925L319.0208936340509,289.3032345398898L321.9562133597873,415.47621947591654L325.62602352994736,83.20833589560146L326.1729282853276,392.7837033129168L326.89420846995944,405.1409885680722L328.3763996185986,121.67199469394046L331.7185953459222,200.28170125864963L332.85996179193313,224.57086971031214L333.1215249358106,135.93695622223584L333.48084400214736,266.5553575139409L334.9234043714112,197.7942125267307L335.1030639045795,191.17284706246951L335.5971276207926,244.4658106821138L338.4029868005694,423.4232690084531L340.03841696279335,155.5179668814461L341.2299823960131,316.6013432386671L343.7874886917042,252.36975749366667L344.3555298627513,414.2285375041249L345.20627059334277,184.4515882883484L348.3925852551232,269.7658656786521L348.4876991256241,299.5333688730246L348.91306949091984,237.98226142197672L349.7188953382192,109.44502544132422L350.07293030063926,57.572553125615514L351.82461074903097,108.44876428953916L353.3490747290039,542.7725939805938L354.03600823817715,303.91761170952543L354.79427715022604,400.96283720824863L355.0901869695622,303.5734930855545L356.73618533961957,223.579155555738L357.232891107791,324.23922039899276L357.47595988795996,402.43308766207457L358.03343285117364,126.37185538838932L358.76792329559737,287.6586747136029L359.66622096143925,222.29244909757455L363.26997983264033,469.02501028399854L363.4971963010592,287.10745677336666L366.9794207821758,342.9225975572605L367.36251831613777,288.00682469592573L370.7390607189201,380.980495449852L373.9253753807005,171.10662023697083L376.8078540672697,141.84148992001238L378.82638176345563,264.42365959470953L384.3614806162169,301.60651834363324L390.8424340700705,277.0673587978913L390.8662125376957,259.9683054719311L391.2017531364072,98.00942120844326L395.7407984008673,190.8785110265189L396.2559985327472,213.79626761836758L397.0644664320049,189.81666998712518L402.47803089468164,358.4960161283157L406.7370186515557,329.93506098766716L407.674947096773,357.6758222087381L408.0474764229015,327.52426181695466L408.54418219107293,222.02750447658508L409.0884448944948,216.70943966649415L410.15054978175493,325.55808397145177L414.57862886396396,311.51714408924784L418.20616620279026,513.5104168680094L418.2167344106237,519.4117161038524L421.79671481419956,329.3842180575102L421.9050389444923,318.0619606210823L425.26044493160765,135.26446939762243L426.095333350449,400.17904270448815L426.65809041757933,249.63040261727204L426.9460740810404,410.57652528548783L427.1732905494593,374.6095898422693L427.4665583168371,212.85091408484058L429.0544315438106,466.2353571807247L432.38870111525915,262.76100553209886L436.11135232458633,408.30101100086443L439.2765305706999,514.752098678533L440.2884364707513,117.44642799722192L443.50381370407365,228.28923527484636L443.5910014186994,182.2198564304773L445.5117731924262,471.05100223714163L445.53290960809306,442.35539503991276L445.71256914126144,242.54088394532835L445.7627681284702,207.9479385562185L446.7588217167714,223.13219041753302L448.5527749964969,137.8206787265638L448.6452468150394,170.54916775416714L448.65317297091457,173.79136427057483L448.97814536179266,75.1006648584966L449.23706645371175,199.8503459149934L450.42598983497317,260.8687984247279L450.5607344848494,412.8181011579393L451.8659081522785,241.89853855583462L452.06406204915544,314.6833541883477L453.1816500275411,238.66899862960156L453.86858353671437,503.3394403748761L454.2437549148013,388.36097506703305L462.69832118154875,293.7276034548703L463.2188054173453,374.3184882682522L464.38659238293985,432.4458005720161L465.87935173941247,391.36597770831577L466.2492390135826,168.62508479005996L466.71688221021213,235.8774704759314L467.5306342133866,213.90080167795827L468.5108354899376,593.9070698984704L468.7037052828978,587.9022678807545L471.89794610055327,275.6875560875543L472.43428264810007,243.601271820665L472.9891135593554,415.2784719735025L473.4937454834019,540.9317632540799L474.99443099574955,301.5110314022045L475.9693481683838,217.14951399449293L476.817446847017,462.9995358356642L478.6985878413683,235.23114060434565L479.4991295847509,284.00124828694663L480.2626826007166,351.3807623896835L482.74885349353195,403.92762001853185L484.07780562858636,346.2810471982354L486.21258361094004,330.2024431741718L487.10559717286526,219.07631578167462L490.846742745901,220.4966664568305L492.11228563395474,148.16200354819594L492.9735945723796,424.02040224526735L495.7160445051559,320.2875516889057L496.12027845478474,372.1753994178636L505.2697043865805,244.32002551380575L508.4718713601111,238.08088907281922L508.7942016990308,415.9567714543443L512.1681020498547,217.98794277917403L512.2420795046888,238.65727956462504L514.4878236692936,157.34243779325274L514.7282503975042,186.51573751705507L516.5089934174379,178.21282685744112L516.5644765085634,133.21175797633288L522.4721046874532,547.2680038674621L523.2198053916686,298.5940155007656L528.4431421133436,434.6318983908685L528.8526601668892,366.5017781763847L529.0693084274745,338.4456334786653L530.9240289022423,234.9210541450666L533.6611947311018,186.77261942134072L534.7734986055707,240.57283104942925L535.2939828413674,120.11668726651487L536.7788160419649,256.58908964781773L536.9954643025503,283.25961897897173L538.01001225456,485.30253371697387L539.4314362081569,169.18816242405242L539.9149317165364,298.4856375878626L540.2478302632898,242.96741103421425L543.072183806775,241.62721876349792L544.4671872407883,466.789504887205L547.3945808106497,478.70458294453584L547.7750362926532,266.50974691305225L548.7076806339538,457.04763367725246L551.5928013724814,308.46151508726655L557.2282981996602,197.06402102617284L559.569156234766,366.7869733416536L564.3750487470202,246.61771226936477L565.6802224144493,345.41397701875167L565.9153650387433,209.64326537198372L566.311672832497,210.33694026607466L567.2575274335894,125.12035300141537L567.4873859539666,144.41996547240916L569.2654869219419,320.41557075470934L570.245688198493,233.07052003275214L570.6895529274973,256.18098492907495L574.6631990728685,363.6067472408418L575.2153879321655,334.1183921742103L577.651359837772,204.543831438095L577.8547978385657,170.40478887365623L579.035795063952,176.71494284840054L582.3119394923166,468.9890796307805L587.2631448622806,314.7557780099027L587.5194239022413,202.4757446035562L588.6238016208353,437.96756616952905L591.2367910076518,342.3695983191478L591.5934680220303,393.41840787204586L592.4838395319972,159.12054808401217L592.8299483385422,152.95111664150608L595.6516598300691,266.7284715417743L598.1536830346347,314.372095822571L599.0836853239769,193.79079242570728L600.4099954070729,245.31867735484602L601.2158212543723,219.70628583855316L602.2832102455491,136.60555231727702L603.9477029793151,251.772319561163L604.4496928514031,262.70672282312756L606.4867149112976,302.5746537394746L607.4642741358903,197.28602699308829L607.6254393053501,145.6266541549128L608.5950723740677,514.7639349341594L609.9927178600394,200.42786143703697L610.7826913955887,355.63398607974676L613.0918448071941,174.18310917461037L614.896366294753,363.29539512254524L618.9598422067085,242.8949872126593L619.715469066799,328.7970929021859L622.3099640899071,319.0087673186664L623.4645407957098,388.5477300864991L623.900479368839,335.2123903278997L625.9295752728583,171.4807396672817L629.1713730257643,161.1683843742715L629.5465444038513,178.37028421446584L630.6747005900704,124.41444340348892L630.8887067986974,85.49814743949628L632.6060405716305,271.1842475508919L634.8914155156107,259.44230695952433L636.2124414947899,325.92212500588283L636.331333832916,303.6544015101525L636.5030672102093,278.5003191869619L640.3155481861209,232.52919298335613L640.8835893571679,89.92640708404895L644.9787698926237,284.7383305977107L645.2773217639183,234.03603035803877L645.4649074529617,153.0172590442336L645.5309587519207,140.72883501488042L649.0580981163293,232.9241723493252L649.5468777286256,162.71680099149094L650.4319651346758,262.02800145594665L651.1004042801405,473.23944386898944L651.1585294232244,519.0605426027656L653.7503823943741,294.4065123270908L655.996126558979,105.24725636672997L657.0503052903641,164.70426065899116L658.0120122032066,247.92077854223547L658.3818994773768,391.4007598931661L660.8046611231916,238.10742103592608L665.5762069599872,331.920739357291L666.2472881574103,187.48068532722286L667.1138811997519,83.36710578790354L668.2895943212214,474.3410828530435L669.5472110534001,342.8640491086377L672.8577021572235,403.110051169509L674.3636717734878,336.60030263120046L674.4508594881137,390.56279987108405L674.5538995144897,431.40585074599846L676.3452107422568,346.67719847070214L676.8736211339285,235.2010929217458L680.7917841881742,290.77585224484096L681.6398828668074,219.78888180850777L681.7534911010167,367.03260494356175L685.8381034286391,515.3449427375658L689.1987935196712,575.341820915166L689.846096249469,242.22887555939312L691.1750483845235,262.46085683991987L691.2146791638988,300.721213299046L692.2186589080751,308.8062899788762L692.6519554292458,424.7269446727026L693.9729814084252,213.09265495717653L694.2741753316781,304.4363444016467L694.2926696953865,306.4137256732671L695.2411663484373,457.1081978050512L698.2689578927162,271.5638515036118L699.6322567032292,269.0873318165108L700.4090199789866,270.3819134863385L702.5173774417569,197.82083824235735L702.7736564817176,154.6312555490617L704.5385471899011,425.31158538625186L705.4104243361594,303.8807669692392L708.316681490354,109.92297578732712L708.4408579323967,241.4895431881536L708.987762687777,371.3328455223108L711.6483090098441,560.6528870541497L714.0578603958671,237.46526315147196L714.4277476700373,293.6574296937908L716.2349112095545,477.45015079131775L717.9680972942379,137.7312388226629L718.8426164924545,144.16106788894757L719.5744648849197,355.6515646772115L720.6207174604299,217.19376518384433L721.6405495163561,360.8358915177903L724.0712373180461,240.34829376447888L728.3777820101706,242.25957950963164L729.0990621948025,188.00963704400365L729.9815075488942,321.9770658484425L730.7688390324851,233.31385469792488L730.9432144617368,300.5853658978381L731.2496924889065,319.20892894846554L732.1347798949564,196.44370747883497L732.4174794545008,400.1048141469268L732.9591001059645,342.90056571510456L733.1598960547997,359.3237571257382L734.1876542666012,570.7548851308311L734.760979541565,536.7805423055725L735.8970618836591,265.33648100386165L738.1771527237227,335.1604045556638L738.9961888308137,329.41412511133035L748.8246221159077,256.80654861752225L749.7282038856662,217.89404963058203L751.4032648272656,309.7817849475228L752.1826701549815,139.45666019728785L753.1205986001987,396.11168338495276L755.4482463755126,261.74529073245276L755.8154915977244,434.8895068771827L756.1087593651023,307.30043700565153L756.4337317559803,363.66604570962306L756.637169756774,374.7205459494671L758.4469753482496,242.57449422368106L760.2039399005581,246.59525854086974L762.8380657030415,333.06564512923836L765.1472191146469,295.12976614118253L765.6650612984853,185.22059333210854L766.2331024695324,201.86855640899205L766.6452625750363,200.66861790791486L767.7971972288806,98.58806176072454L768.4180794390949,462.2671411508908L768.787966713265,663.7446344419052L769.8712080161921,278.30573583209156L772.3230322335488,284.6839072599597L772.7484025988445,189.27534293772916L773.8025813302297,170.33616202915363L775.4829263757457,298.4264797478611L775.6599438569558,222.5007203203375L776.9122764852177,78.63518173167893L777.9585290607276,315.2731512904867L779.2319981046564,290.41101431399153L781.535867412345,161.11822677617198L785.6099115321341,499.2955894996837L785.8476962083864,511.0994301922573L789.8028479900491,355.01311001729L790.0617690819684,295.0758584422905L791.731545919651,171.9061886021898L792.756662079494,253.23898398110612L792.9680262361628,180.78947423570156L793.4647320043341,177.16382991326165L796.1675511577349,193.46804937625353L796.2256763008188,181.33619205498678L797.2930652919958,402.47661226939744L797.7659925925419,490.31714505856246L801.5124222694944,246.54655410682727L801.6339566595789,407.3428602483831L802.1676511551673,317.02918286283034L802.9153518593828,219.14161441172388L805.480784310949,364.89110988600993L807.2060442397571,236.37810893172892L808.0356485546816,239.83363930696945L810.3210234986619,418.65318767666486L812.2180168047634,229.71685177028766L813.0370529118545,158.54565763252336L813.3435309390242,154.65202173220013L813.5390427839426,366.92713335877295L813.652651018152,373.44054279647025L816.0780547159252,425.15443272491655L818.8495672202434,374.53318153862233L819.0186585455782,372.01761392701957L819.0794257406205,346.51233466461224L819.9354505751288,380.4094957279354L821.2115616710159,339.85159314202997L824.0887562536685,263.9410684989759L828.9369215972565,396.4633022105087L830.2922942518943,152.47635388117675L833.6133535635511,234.14328324070402L834.3293496442662,171.58363305777567L834.3425599040581,178.8736883695978L834.4825886578511,231.11540498458714L836.456201470745,154.509752283385L836.8577933684155,310.03351046321876L837.6715453715899,283.7519603367658L840.0018351988622,483.86408880549425L840.4879727592003,201.78764798439408L842.2264429478001,398.7441135125015L843.8143161747736,294.2644303833153L844.929262101201,144.6329243211627L845.1538365176614,133.095317346726L846.2370778205884,308.59454991288015L846.477504548799,393.62213209759796L847.0191252002626,256.135514956966L847.5184730203923,491.6090782197054L853.6586017716177,290.14302273610815L854.4987742943756,482.0196251688377L854.5225527620009,493.89157706705487L856.276875262351,205.14183188571755L849.6585351066627,604.1033947291478L851.4947612177219,334.5539195049982L853.1116970162374,502.1879953646718L853.2702201337388,483.1205141327332L854.9135764518379,256.8578312458596L856.940030303899,508.1464601994704L859.5107468593818,456.0090901390321L861.2043021646897,268.6409291934247L864.1184854747593,177.98153939106427L865.4738581293972,315.2126340389479L868.1185521397141,535.3451443509867L868.1581829190895,529.3007787699103L869.5267658335192,244.29719677523147L870.6734163834469,245.5900440234426L872.3748978446298,343.3215145290617L873.0248426263861,357.61436743200113L873.4264345240565,549.0130663949876L875.0222339069051,523.6144071857368L875.8122074424543,260.44972466116707L875.949594144289,264.4355661647257L876.266640379292,389.1707624569115L876.9033749012564,461.3183890885206L878.3829239979372,281.58458958374587L879.0302267277351,312.92104119717663L879.0487210914436,315.60451957176315L880.5811112272916,270.94339732749415L884.1373131632422,442.0220110794603L884.224500877868,431.72343740686256L884.4754958139121,357.58591354223813L884.5204106972043,334.4606826240449L886.5310122375151,263.17201657895583L892.5707430143228,319.32644773205027L894.1797526569632,340.2912924599495L899.7386299773495,423.9533691936016L903.5643212130527,241.4474951830178L904.0557428773075,331.4131632150274L904.1904875271838,329.8076044369824L906.3490439771628,168.45009571183036L906.9672841354186,351.4333575532982L907.3371714095888,246.86273447989413L908.4574014399329,337.9273226728832L908.7876579347277,346.32393897604953L909.4508129762758,560.7480927380191L914.6582973862005,231.3885998273201L916.3782732110919,306.3026758135495L916.4628188737595,285.5892284675268L917.4060314228934,157.52886467889942L917.6200376315205,125.3590000405975L922.951698483488,318.511035190983L923.7733766425375,198.78152031287365L926.6003722379813,455.66154954808803L926.8090943426917,407.2349979743391L928.0772792827037,287.82250724197485L931.0310933721486,336.6196625265417L931.3481396071517,350.2821234862635L935.3508483240649,295.27044179716086L937.2901144615,186.54658209607334L938.8806297404319,213.1091554006635L945.7235443125808,372.4580632650976L948.1515900623122,279.8039010986916L948.4131532061897,250.1871050799173L948.6615060902755,508.235032892563L949.2982406122399,302.0469676817113L950.463385525876,594.6012135551604L950.7513691893371,287.0864562089287L951.723644310013,358.8620259656628L951.8821674275144,386.2608717469784L952.6113737680215,176.28250935076645L952.6166578719382,174.18971872725712L952.8491584442737,216.76419113806452L953.8716325521584,139.25767047398628L954.2098152028285,250.48640999941796L954.54535580154,273.29316360780894L954.862402036543,169.9240259520589L954.9918625825026,165.3788569153003L955.8029725337185,221.5210533645592L956.1332290285135,166.36522717624518L958.3208480500344,146.7244961619145L958.973434883749,244.63362769257776L959.9932669396754,436.9651876658263L961.2112528924787,424.09641210070515L962.6643814695758,323.8568507469384L967.079250291993,366.76133202748497L968.4372649985894,375.6967440620124L970.8124697091537,515.7909469124428L972.7992927818394,309.94636749605326L972.9815943669661,392.581854137761L975.8429366378685,318.53302015687905L976.8839051094617,302.4934171810573L978.6778583891871,361.00459917719246L978.860159974314,305.5871565823423L982.1917874938042,289.9116415172115L983.3331539398149,337.43662198418576L983.8642063834451,299.6478875759753L984.4665942299508,199.90575365420244L988.2315182706118,426.8618536157376L989.2249298069546,240.30924583997708L990.4666942273832,228.66443285913508L991.2857303344744,229.67850698968445L992.5565573264447,145.68857769424883L993.5341165510374,252.18168993892326L994.4271301129627,209.37382063004324L995.9410258851021,507.86745270050903L998.7944420001294,326.74869409680764L999.6029098993871,174.97850555269767L1002.041523856952,249.86239322754753L1002.6307014436661,133.32022964175565L1003.8698238121362,356.2018919685095L1005.0191164140223,486.29263064058125L1006.8685527848731,146.77877887088576L1007.0852010454587,202.42544637667694L1007.2173036433766,219.97812126974884L1008.142021828802,258.95320006366376L1008.4247213883464,294.74017754510265L1009.719326847942,537.6360340488594L1009.732537107734,528.8041247962047L1010.9478810085789,258.693880593863L1011.7669171156701,448.0413681758769L1011.9412925449217,375.4912854148438L1013.8937689421487,266.23973965599293L1014.2662982682772,449.51171238222264L1015.0113569205344,210.87011084624703L1015.3865282986213,148.29175703561614L1016.5463891083407,242.07207447000712L1017.0430948765122,309.6677818834311L1017.9202561266871,273.6369540979605L1021.8674817524748,193.25846561821322L1023.8331684094936,258.5967529833375L1025.3734847012167,236.11391433089796L1025.714309403845,253.97606629187015L1026.0366397427647,102.79183099658678L1027.547893462946,328.7484822206632L1027.587524242321,332.32715653067714L1027.8358771264068,338.62615395556384L1029.7645750560087,443.1324159241168L1029.9917915244275,347.46378211192706L1030.636452202267,216.3061632025217L1032.7765142885373,202.4100240871678L1035.616720143773,231.42952280221814L1036.4040516273637,514.9551197601864L1037.4053893195817,246.2586869947437L1039.0461035857222,359.5639979577571L1040.1319869406077,266.856443731318L1041.0593471779916,324.7305773553288L1042.182219260294,457.2237009094599L1043.1729887446786,230.6060475444471L1046.1532233537068,407.083212644763L1049.683004770074,126.42777876645735L1049.7437719651164,113.93323982229685L1050.0159033168272,152.3322562582253L1053.6196621880283,111.02658357429726L1053.9842653582818,133.2908851030544L1054.2009136188672,129.24480760551643L1054.3145218530765,97.00355042337748L1055.6276216763808,449.8497370924058L1060.44144034451,282.9090314311337L1062.1667002733182,245.21536207801287L1064.9804856089702,159.24767650087765L1065.7704591445192,216.45996421127373L1066.4811711213179,460.4309042978477L1066.9620245777392,215.74336682608865L1068.898648663216,158.28183804177164L1069.3768600676788,365.84719808305545L1070.1192766679776,408.9267621943514L1072.5446803657508,240.45114027871293L1075.752131443198,491.975345876482L1078.1933874527215,474.4990324107972L1078.5130757396828,232.89210898754942L1080.8037347875797,273.7523165735895L1081.9609535453408,304.02027071871987L1082.0349310001748,266.65576646265987L1085.028375868995,240.85713556575996L1086.1512479512974,331.10734249539973L1089.7497227185818,92.40794253095982L1090.9386460998433,421.20034988744436L1091.9399837920612,226.8013827854257L1092.2675982348976,350.5617872528635L1092.8488496657365,635.233907213746L1097.0946271628186,358.36255941636296L1100.3152885000577,480.75710686078577L1101.665377050779,431.02908280700296L1102.1462305072002,330.7844588171663L1103.1634205111684,394.93297982961303L1103.3800687717537,297.61102033053396L1104.3153551650128,192.86508004508096L1105.0049307261443,394.328229200564L1099.6362811467595,193.98111004092615L1102.6957773145389,327.1212197342817L1104.6508957637243,357.4787544120927L1109.1846569242675,570.6948366418914L1110.6906265405319,494.62718277563187L1111.2401733478705,357.15268314818564L1112.4845798202575,305.69773767946083L1113.507053928142,332.76488704568067L1114.9522563493642,212.02720444577002L1115.480666741036,141.8547559015658L1116.555981888088,277.9287569499264L1117.8215247761416,297.61706736806184L1118.7251065459004,545.9852350151307L1120.2442864219565,451.7576243087154L1121.161078451507,155.1975207687278L1123.4358851876536,339.27993715247464L1124.1122504889934,327.68875061296524L1124.5191264905807,540.779931048244L1127.2166615400647,357.49670801963674L1128.3950167134926,301.8509311627838L1128.706778844579,429.4391338235067L1128.7992506631217,440.40616296236595L1131.969713013152,318.12805614754996L1134.8680440114713,409.35129704219133L1139.0398440537194,222.3540913793511L1139.2670605221383,292.2517981642455L1140.0860966292294,155.9467440308075L1140.8919224765289,161.30320049776157L1143.2248543557594,356.83706529023766L1143.8246001503069,290.45554676090234L1144.2526125675608,380.1291756936967L1148.2341848688072,415.27915167927114L1148.9845276249812,334.9711650944227L1149.7771432124887,270.45335290643544L1150.2659228247849,241.69879881237458L1151.5446759726306,296.7970609535239L1152.7203890941003,271.2774844318452L1156.2211079389251,275.09157131910774L1157.9569360755668,365.67291214872444L1158.4562838956965,219.30624383651423L1158.8076768061583,223.4180418504406L1160.7073121642181,309.24777059467215L1161.111546113847,540.0287624213781L1161.4127400370999,445.2140265596385L1163.0904430306575,295.9274125797453L1163.6267795782044,364.38456502146425L1164.7575778163819,255.10897174128158L1167.4101979825737,297.34335688646996L1171.6797539472814,539.9971209459416L1172.3429089888293,267.7421237859845L1172.5199264700393,258.7939145325027L1173.5952416170912,546.706238768747L1174.0866632813459,366.829724490688L1177.0325512149157,451.5247430495017L1177.909712465091,362.3953240560876L1178.1633494530934,245.9545069442128L1178.52266851943,273.7064715914013L1179.804063719234,337.0224233516552L1184.364245399361,405.30308667482757L1185.2546169093275,223.86899147073763L1186.097431484044,271.71563683318783L1186.4937392777979,324.9575053295344L1188.5518977533593,232.83070108707238L1189.8861339923303,225.8184813677139L1192.9931870953599,324.97264636148407L1193.9707463199527,285.63746413897024L1194.319497178456,274.64910630185375L1199.0223496643341,291.84983423555036L1201.0567296722704,425.7777697910184L1202.594403912035,387.8361015848641L1206.5178510701976,308.624081956621L1207.6512913603333,238.94181846225527L1207.936632971836,277.4452752052546L1208.2166904794221,230.58303130083317L1208.3752135969237,187.91344695867627L1208.6341346888428,317.42659979431454L1210.7372080476962,335.0774335756299L1211.9789724681248,433.1111622051237L1212.7821562634658,333.94096553046563L1214.9010819340692,240.7617892531109L1216.4229038620838,264.99353428638835L1218.9566316901498,299.90889459113265L1219.1812061066103,535.1790852002694L1219.3846441074038,430.7177306887064L1220.2538792017037,294.14873977386696L1221.8760991041358,573.4198005064948L1233.4614969415384,519.9763640925518L1234.0744529958774,212.79822516870613L1236.4443736025253,217.67152802480763L1239.863188836641,252.9027405687994L1240.4550084753134,275.87909248553075L1240.7377080348579,335.6169793271495L1240.9437880876098,183.58794007583782L1242.6056387694175,391.41496339991767L1243.8764657613879,226.74986577578886L1243.8976021770545,240.86838586813744L1244.4022341011012,284.3196318442291L1246.566074654997,331.57666760957994L1247.0574963192514,550.2956243041494L1248.1909366093873,435.4364825158974L1231.3214348552679,171.18241914923908L1231.8287088312727,171.9126106497969L1232.3280566514024,347.0407238662742L1232.5790515874464,517.5642055103019L1236.0876965881469,542.4654138494288L1239.1128460804673,186.22529221067668L1239.9292401356001,446.47966213897416L1240.63731006044,231.56105758751474L1240.9200096199845,297.6878036442602L1241.4484200116563,599.5662063756383L1242.8645598613366,475.65139150806965L1243.855329345721,361.91849874032243L1244.3705294776007,297.22424431004845L1246.5713587589134,340.3945139842628L1247.2847127876703,205.54918658430182L1247.5357077237145,164.00899197206337L1247.9293734655098,228.0187123789281L1248.3705961425558,567.3564500401562L1249.5912241473175,187.54471829825462L1249.8290088235697,260.764358117657L1251.445944622085,371.52274125119055L1257.9533185955222,407.27894446800104L1262.6429608216088,374.80693889647415L1264.693193141295,618.4669956273507L1269.084283496087,422.6035672896045L1270.7302818661444,328.18915468746326L1275.6894133919834,353.57686829002597L1279.0765240025992,453.54810993209003L1279.657775433438,414.85309335298433L1281.713291857041,257.6000230689534L1282.2628386643796,236.79179192540053L1282.8942890824273,411.6969147735044L1283.5019610328497,347.9118254041099L1285.0977604156983,301.6820828746019L1286.5588151486706,264.4770516547426L1287.1664870990933,352.8111914607192L1287.924756011142,373.50748209561624L1288.8653265083176,543.2890062978497L1290.9076326721288,239.81559194690558L1291.005388594588,282.86717093103755L1291.483599999051,379.93154538193244L1294.3872151012872,546.5634536810728L1296.8363972666855,268.28748219373244L1298.0623093753638,167.64316777380617L1298.070235531239,169.13448910645994L1300.3054114880103,204.58025429204207L1301.547175908439,370.17912701350104L1301.901210870859,447.79880696899266L1302.4956725614895,315.55858083705516L1302.6172069515742,395.7482517419005L1302.918400874827,426.16485050719325L1303.2407312137466,320.2122215392365L1303.330560980331,325.62141379858497L1303.4441692145401,321.08444810731L1304.8550249603038,298.8227716491075L1305.9276980553973,407.58178854512465L1307.4548040873285,189.54497518470924L1309.2698937827208,364.21093535477195L1309.616002589266,368.5278638820476L1309.8194405900595,485.20055441354805L1310.604130021692,270.1371725333686L1312.6437941335448,277.4281653703888L1314.1207011782674,359.89728816568976L1314.5487135955213,413.1091792938264L1318.036222180555,254.08495984363208L1319.8433857200719,267.2636578011226L1320.9424793347491,282.9744238137028L1321.758873389882,239.9195166151175L1324.588511037284,359.1669560363522L1324.8078013498277,318.0774297868513L1328.2741735191944,584.0690789175802L1329.9069616294598,268.84226272972154L1332.1104329627308,341.94818074259166L1334.6203823231715,421.95772961874775L1338.7182049105857,302.3603823554437L1338.868801872212,257.3727669609285L1339.1673537435065,182.7271044389216L1340.9586649712737,223.0831109734113L1341.4870753629455,208.79274251224683L1342.4144356003294,306.62579387308244L1343.6879046442582,568.9180857626691L1345.043277298896,324.1610307974693L1349.3445378871038,339.39820595621785L1350.0843124354442,301.5658297500347L1351.2520994010388,522.0315833937464L1353.0196321611807,321.85776576698146L1358.6339925726927,311.4165945117492L1359.4900174072009,317.7982347828504L1360.0554165262895,322.57801950043915L1360.3724627612926,292.92512876153717L1360.5547643464192,264.79506020194583L1363.8996021257012,389.95120530808873L1367.6803784781125,172.5346117424914L1368.9353531583326,177.66639029571533L1369.9419749544672,491.8659132477311L1369.9710375260092,457.19707519383326L1370.1269185915526,319.9475112995466L1371.7676328576931,231.39614690516498L1374.05829190559,187.72716070180928L1374.3040027377174,218.18374491680194L1374.4096848160518,247.63938035401895L1375.6963641197724,158.1980701653194L1377.7967954266674,171.31296953307765" fill="none"></path></g></g></g></g></g></g><g transform="translate(41, 377)" clip-path="url(#clip_1)"><clipPath id="clip_1"><rect width="1404" height="22"></rect></clipPath><g><g><line x1="2.6113931529859604" y1="0" x2="2.6113931529859604" y2="5" style="visibility: inherit;" fill="rgb(0, 0, 0)" stroke="rgb(204, 204, 204)" stroke-width="1px"></line><line x1="134.71399107091486" y1="0" x2="134.71399107091486" y2="5" style="visibility: inherit;" fill="rgb(0, 0, 0)" stroke="rgb(204, 204, 204)" stroke-width="1px"></line><line x1="266.81658898884376" y1="0" x2="266.81658898884376" y2="5" style="visibility: inherit;" fill="rgb(0, 0, 0)" stroke="rgb(204, 204, 204)" stroke-width="1px"></line><line x1="398.9191869067726" y1="0" x2="398.9191869067726" y2="5" style="visibility: inherit;" fill="rgb(0, 0, 0)" stroke="rgb(204, 204, 204)" stroke-width="1px"></line><line x1="531.0217848247016" y1="0" x2="531.0217848247016" y2="5" style="visibility: inherit;" fill="rgb(0, 0, 0)" stroke="rgb(204, 204, 204)" stroke-width="1px"></line><line x1="663.1243827426305" y1="0" x2="663.1243827426305" y2="5" style="visibility: inherit;" fill="rgb(0, 0, 0)" stroke="rgb(204, 204, 204)" stroke-width="1px"></line><line x1="795.2269806605594" y1="0" x2="795.2269806605594" y2="5" style="visibility: inherit;" fill="rgb(0, 0, 0)" stroke="rgb(204, 204, 204)" stroke-width="1px"></line><line x1="927.3295785784883" y1="0" x2="927.3295785784883" y2="5" style="visibility: inherit;" fill="rgb(0, 0, 0)" stroke="rgb(204, 204, 204)" stroke-width="1px"></line><line x1="1059.4321764964172" y1="0" x2="1059.4321764964172" y2="5" style="visibility: inherit;" fill="rgb(0, 0, 0)" stroke="rgb(204, 204, 204)" stroke-width="1px"></line><line x1="1191.534774414346" y1="0" x2="1191.534774414346" y2="5" style="visibility: inherit;" fill="rgb(0, 0, 0)" stroke="rgb(204, 204, 204)" stroke-width="1px"></line><line x1="1323.637372332275" y1="0" x2="1323.637372332275" y2="5" style="visibility: inherit;" fill="rgb(0, 0, 0)" stroke="rgb(204, 204, 204)" stroke-width="1px"></line></g><g transform="translate(0, 8)"><text style="text-anchor: middle; visibility: hidden; font-family: &quot;Helvetica Neue&quot;, sans-serif; font-size: 12px; font-weight: 200;" x="2.6113931529859604" y="0" dx="0em" dy="0.95em" fill="rgb(50, 49, 63)" stroke="none" stroke-width="1px">0</text><text style="text-anchor: middle; visibility: inherit; font-family: &quot;Helvetica Neue&quot;, sans-serif; font-size: 12px; font-weight: 200;" x="134.71399107091486" y="0" dx="0em" dy="0.95em" fill="rgb(50, 49, 63)" stroke="none" stroke-width="1px">50k</text><text style="text-anchor: middle; visibility: inherit; font-family: &quot;Helvetica Neue&quot;, sans-serif; font-size: 12px; font-weight: 200;" x="266.81658898884376" y="0" dx="0em" dy="0.95em" fill="rgb(50, 49, 63)" stroke="none" stroke-width="1px">100k</text><text style="text-anchor: middle; visibility: inherit; font-family: &quot;Helvetica Neue&quot;, sans-serif; font-size: 12px; font-weight: 200;" x="398.9191869067726" y="0" dx="0em" dy="0.95em" fill="rgb(50, 49, 63)" stroke="none" stroke-width="1px">150k</text><text style="text-anchor: middle; visibility: inherit; font-family: &quot;Helvetica Neue&quot;, sans-serif; font-size: 12px; font-weight: 200;" x="531.0217848247016" y="0" dx="0em" dy="0.95em" fill="rgb(50, 49, 63)" stroke="none" stroke-width="1px">200k</text><text style="text-anchor: middle; visibility: inherit; font-family: &quot;Helvetica Neue&quot;, sans-serif; font-size: 12px; font-weight: 200;" x="663.1243827426305" y="0" dx="0em" dy="0.95em" fill="rgb(50, 49, 63)" stroke="none" stroke-width="1px">250k</text><text style="text-anchor: middle; visibility: inherit; font-family: &quot;Helvetica Neue&quot;, sans-serif; font-size: 12px; font-weight: 200;" x="795.2269806605594" y="0" dx="0em" dy="0.95em" fill="rgb(50, 49, 63)" stroke="none" stroke-width="1px">300k</text><text style="text-anchor: middle; visibility: inherit; font-family: &quot;Helvetica Neue&quot;, sans-serif; font-size: 12px; font-weight: 200;" x="927.3295785784883" y="0" dx="0em" dy="0.95em" fill="rgb(50, 49, 63)" stroke="none" stroke-width="1px">350k</text><text style="text-anchor: middle; visibility: inherit; font-family: &quot;Helvetica Neue&quot;, sans-serif; font-size: 12px; font-weight: 200;" x="1059.4321764964172" y="0" dx="0em" dy="0.95em" fill="rgb(50, 49, 63)" stroke="none" stroke-width="1px">400k</text><text style="text-anchor: middle; visibility: inherit; font-family: &quot;Helvetica Neue&quot;, sans-serif; font-size: 12px; font-weight: 200;" x="1191.534774414346" y="0" dx="0em" dy="0.95em" fill="rgb(50, 49, 63)" stroke="none" stroke-width="1px">450k</text><text style="text-anchor: middle; visibility: inherit; font-family: &quot;Helvetica Neue&quot;, sans-serif; font-size: 12px; font-weight: 200;" x="1323.637372332275" y="0" dx="0em" dy="0.95em" fill="rgb(50, 49, 63)" stroke="none" stroke-width="1px">500k</text></g><line x1="0" y1="0" x2="1404.8599996566772" y2="0" fill="rgb(0, 0, 0)" stroke="rgb(204, 204, 204)" stroke-width="1px"></line></g></g></g></g></svg>